<svg xmlns="http://www.w3.org/2000/svg" viewBox="0 0 396.87499 33.07292">
  <path d="M145.62495 26.54089c-4.24416-1.14286-6.75931-4.04784-6.74746-7.79327.009-2.71917.82822-4.51725 3.08416-6.76602 2.17677-2.16986 4.24673-3.308 7.21895-3.96926 3.05974-.68072 6.72033-.23113 8.70478 1.06913.55287.36226.55549.40351.17146 2.70191-.2145 1.28372-.4347 2.38291-.48935 2.44266-.0547.05974-.3128-.08454-.57367-.32063-1.98049-1.79232-6.30327-2.19342-9.25549-.8588-1.69113.76452-3.31416 2.26048-3.77901 3.48311-.37493.98616-.30656 2.66934.14383 3.54028.87511 1.69228 2.92813 2.64637 5.69449 2.64637h1.77878l.17486-1.12448c.0962-.61846.30221-1.86862.45785-2.77812l.283-1.65365h2.38239c1.7967 0 2.35144.08131 2.25646.33073-.0693.1819-.40384 1.96892-.74349 3.97116l-.61755 3.64042-1.07076.51542c-2.68454 1.29225-6.32711 1.66277-9.07423.92304zm27.77583.01537c-1.89506-.53299-2.82123-1.04482-4.21449-2.32909-1.84115-1.69711-2.31603-2.8181-2.32289-5.48347-.005-2.01844.0847-2.43697.86428-4.02192 2.12342-4.31728 7.88536-7.38519 13.15282-7.00313 1.90063.13786 4.62237.9892 5.13423 1.60595.20892.25174.17083.97631-.13918 2.64754-.42252 2.27777-.4325 2.29675-.99114 1.88362-1.58088-1.1691-2.91998-1.57166-5.19453-1.56159-3.77125.0167-6.85142 1.67024-7.81597 4.19588-1.80653 4.7303 5.13769 7.69556 11.09373 4.73714.71137-.35334 1.32801-.60783 1.37031-.56553.0423.0423-.0914.9603-.29715 2.04-.20572 1.07971-.34208 1.99508-.303 2.03416.0391.03908 2.69071-3.64377 5.89252-8.1841l5.82148-8.25514 2.23935-.07493 2.23935-.07492 2.04117 5.76346a53787.92232 53787.92232 0 0 1 3.23502 9.13691l1.19384 3.37344h-5.44735l-.45871-1.45521-.45872-1.4552h-9.96268l-1.00224 1.4552-1.00224 1.4552h-2.60186c-1.43102 0-2.60185-.09524-2.60185-.21166 0-.11642.14883-.37206.33073-.5681.27217-.29334.23704-.31895-.19844-.14464-3.49902 1.40056-7.00776 1.78818-9.59639 1.06013zm25.07429-7.34562c-.00013-.1819-.39845-1.4457-.88516-2.80846l-.88492-2.47774-1.71542 2.47774c-.94348 1.36275-1.80234 2.62656-1.90858 2.80846-.14947.2559.43894.33073 2.60056.33073 2.05873 0 2.79368-.08701 2.79352-.33073zm12.70022 7.31493c-2.51366-.67247-4.59348-2.8226-4.4443-4.59453l.0787-.93446 2.35149-.07698c2.06605-.06763 2.4111-.013 2.84255.4501.53351.57267 2.04086 1.07826 3.22161 1.0806 1.91312.0038 3.88747-.96287 3.88747-1.90337 0-.54298-1.53364-1.0926-3.64245-1.30537-3.76214-.37958-5.27031-1.06423-6.38995-2.90078-1.03688-1.70081-.52896-3.97919 1.29383-5.8037 4.11393-4.1178 12.12021-3.7532 14.36329.65408l.39592.77791.32088-1.9024.32088-1.90239h10.29484c5.66217 0 10.29485.07864 10.29485.17476 0 .23165-2.58252 14.91252-2.93637 16.69243l-.27615 1.38906h-2.49478c-1.82057 0-2.49421-.08938-2.49266-.33072.002-.32745 1.96538-11.56292 2.26542-12.96459l.15575-.7276h-4.7625l-.15028.7276c-.0827.40018-.64168 3.52558-1.24229 6.94531-.60062 3.41974-1.12242 6.25198-1.15956 6.29385-.0371.04187-1.19213.04187-2.56664 0l-2.4991-.07614 1.22349-6.94531 1.22347-6.94531h-2.69637c-2.39683 0-2.71054.05415-2.82384.48739-.10675.40823-.5037.5163-2.44419.66547-2.21749.17045-2.34198.15085-2.90558-.45729-1.12827-1.21742-4.65341-1.23403-5.85983-.02761-1.19971 1.1997-.26138 1.83473 3.30865 2.23915 4.64827.52656 6.65382 1.94252 6.63796 4.68652-.027 4.6787-6.73111 8.1296-12.69419 6.53432zm62.508.01532c-5.91762-1.59347-8.35551-6.7185-5.69862-11.9797.9144-1.81068 3.53203-4.25974 5.68145-5.31558 4.01378-1.97165 9.4089-2.04377 12.27759-.16413.55288.36225.55547.4035.17145 2.7019-.21449 1.28372-.43471 2.38292-.48934 2.44266-.0546.05974-.30845-.07522-.56402-.2999-1.27008-1.1167-2.8259-1.63305-4.96255-1.647-3.40045-.0222-5.59339.89913-7.36073 3.09244-.99436 1.23405-1.27143 3.35563-.60622 4.642.90461 1.74933 2.92373 2.7028 5.72366 2.7028h1.77879l.17486-1.12448c.0962-.61847.30221-1.86862.45784-2.77813l.283-1.65364h2.38238c1.79671 0 2.35146.0813 2.25648.33072-.0693.1819-.40384 1.96893-.74351 3.97116l-.61754 3.64043-1.07077.51542c-2.68454 1.29224-6.32708 1.66276-9.0742.92303zm91.21492-.01532c-2.51367-.67247-4.59348-2.8226-4.44431-4.59453l.0787-.93446 2.35148-.07698c2.06605-.06763 2.41112-.013 2.84255.4501.53351.57267 2.04086 1.07826 3.22162 1.0806 1.91312.0038 3.88747-.96287 3.88747-1.90337 0-.54298-1.53363-1.0926-3.64246-1.30537-3.76214-.37958-5.27029-1.06423-6.38993-2.90078-1.0369-1.70081-.52898-3.97919 1.29381-5.8037 4.38343-4.38755 13.23793-3.5763 14.56013 1.334.15814.58735.22672 1.16636.15235 1.28667-.0744.12032-1.16568.29797-2.42518.39478-2.18821.1682-2.31616.14779-2.87882-.45934-1.12826-1.21742-4.65341-1.23403-5.85983-.0276-1.1997 1.1997-.26136 1.83472 3.30866 2.23914 4.64826.52656 6.65383 1.94252 6.63795 4.68652-.027 4.6787-6.73111 8.1296-12.69418 6.53432zm-347.65-.56805c.0069-.25467.69925-4.33256 1.53861-9.06198l1.52612-8.59896h4.87753c4.19262 0 4.99969.0667 5.74741.47498 1.8185.99294 2.09714 3.34324.59559 5.02376l-.75513.84514 1.22392.66452c1.64874.89517 2.43137 2.1038 2.43137 3.75485 0 2.28875-1.23582 4.35905-3.45027 5.78006-2.05513 1.31878-3.49803 1.57398-8.919 1.5775-4.42824.0029-4.82761-.03524-4.81615-.45987zm10.74612-3.94074c1.65927-.78738 2.24245-2.46137 1.24685-3.57903-.75037-.84237-2.02856-1.27763-3.7519-1.27763h-1.553l-.43987 2.46262c-.24192 1.35444-.43986 2.62206-.43986 2.81695 0 .48898 3.68038.17376 4.93778-.42291zm-.68706-8.83472c.28148-.15064.51178-.45424.51178-.67466 0-.3207-.30394-.38492-1.52136-.32142-1.3477.07029-1.531.1473-1.6059.67466-.07599.53502.02627.59531 1.00958.59531.60177 0 1.32443-.12325 1.6059-.27389zm6.87427 12.77546c.0069-.25467.69884-4.33256 1.5377-9.06198l1.52518-8.59896 5.26906-.07194c4.30045-.05871 5.52345.0081 6.6529.36333 3.97893 1.25153 4.88113 5.58524 1.80346 8.66292-.67444.67444-1.73063 1.38716-2.44554 1.65026-.6921.2547-1.34765.53864-1.45676.63098-.1091.09233.83678 1.3857 2.10196 2.87417 1.49456 1.7583 2.36138 2.58781 2.47457 2.36807.09582-.18601.81049-3.99938 1.58815-8.47415l1.41394-8.13593h14.91558l-.36583 1.91823c-.2012 1.05502-.36596 2.00752-.36613 2.11666-.00017.10914-2.18809.19844-4.86203.19844h-4.86172l-.16537.82682c-.32464 1.6232-.48173 1.55443 3.5508 1.55443h3.71615l-.15403.8599c-.08471.47294-.2421 1.39567-.34973 2.05052l-.19569 1.19062-3.73773.07325c-4.165.08163-3.9159-.0469-4.2103 2.17248l-.17592 1.32614h9.91665l-.18534.99219c-.10193.5457-.08542.898.0367.78287.12212-.11512 2.7243-3.74653 5.78263-8.0698l5.5606-7.86047 2.24714-.07552 2.24713-.07552 3.04019 8.59214c1.6721 4.72568 3.11165 8.51013 3.19899 8.4099.08735-.10024.77778-3.75412 1.5343-8.11975.75652-4.36562 1.43722-8.14586 1.51267-8.40052.11807-.39855.48466-.46302 2.63288-.46302 1.37264 0 2.49571.09409 2.49571.20909s-.30359 1.9129-.67464 3.99534c-.37106 2.08243-.63895 3.87876-.59531 3.99184.04363.11307 2.40105-1.68415 5.23871-3.99383l5.15937-4.19942 3.10885-.0016c1.70987-.0008 3.10886.05114 3.10886.11549 0 .06435-2.44225 2.05424-5.42723 4.42198-2.98497 2.36773-5.39599 4.38403-5.35781 4.48066.2359.5971 8.02799 8.62533 8.11952 8.36557.0619-.17577.78349-4.12959 1.60346-8.78625l1.49086-8.46667 2.56372-.07573c1.41005-.04165 2.56373.0072 2.56373.1086 0 .23846-2.57393 14.87891-2.93637 16.70202l-.27615 1.38906H103.7981l-3.92442-4.21957c-2.15843-2.32076-3.99465-4.13646-4.08049-4.0349-.08583.10158-.42262 1.79203-.74842 3.75656-.3258 1.96453-.65054 3.78023-.72166 4.0349-.11742.42045-.59749.46301-5.22253.46301h-5.09323l-.45871-1.4552-.45872-1.45521h-9.93916l-1.00225 1.4552-1.00223 1.45521H46.41182l-2.85774-3.44885c-1.57176-1.89686-2.93969-3.35538-3.03984-3.24114-.10016.11424-.38794 1.45786-.63952 2.98583-.25159 1.52797-.51521 2.98648-.58584 3.24114-.1107.39918-.47256.46302-2.62412.46302-2.20524 0-2.49426-.05389-2.48322-.46302zm47.34793-6.62472c0-.11472-.39422-1.38442-.87603-2.82156l-.87603-2.61298-1.72454 2.49082c-.9485 1.36996-1.81147 2.63966-1.91771 2.82156-.14947.2559.43894.33073 2.60056.33073 1.53656 0 2.79375-.09386 2.79375-.20857zm-35.26284-3.48838c1.4076-.85824 1.51459-2.80221.1875-3.40687-.3807-.17346-1.56766-.38939-2.6377-.47984-1.8963-.1603-1.94891-.14844-2.08007.46846-.34654 1.62994-.68815 3.46106-.68815 3.68864 0 .13878.97864.25112 2.18282.25057 1.70303-.0008 2.37025-.11528 3.0356-.52096zm72.42292 1.44849 1.60137-9.12763 1.2145-.00053 1.2145-.00053 4.45167 4.65138c3.06168 3.19903 4.51048 4.5415 4.63999 4.29948.10358-.19355.52046-2.28667.9264-4.65138l.73807-4.29948h2.60675c2.56876 0 2.60469.0087 2.46547.5953-.19814.83498-3.04381 17.11748-3.04381 17.41628 0 .1346-.55911.24474-1.24247.24474h-1.24247l-4.47914-4.64124c-2.46353-2.55268-4.52616-4.59421-4.58363-4.53674-.095.09498-1.6677 8.51443-1.67734 8.97954-.002.10914-1.17121.19844-2.59767.19844h-2.59356zm126.63112 8.53232c.008-.32743.69238-4.40532 1.52135-9.06198l1.50723-8.46667 1.19724-.07821 1.19724-.07821 4.46827 4.66463c3.08329 3.21878 4.52685 4.5552 4.65725 4.31155.10394-.1942.52112-2.28786.92706-4.65257l.73807-4.29948h2.63002c1.99263 0 2.60046.08015 2.5081.33073-.0671.1819-.81556 4.28956-1.66333 9.12812l-1.54141 8.7974h-2.35448l-4.4984-4.6397c-2.47412-2.55182-4.54912-4.58896-4.6111-4.52697-.1034.10339-1.66958 8.51421-1.66998 8.96823-.00009.10914-1.13127.19844-2.51371.19844-2.43444 0-2.5131-.01873-2.49942-.59531zm47.88959 0c.008-.32743.69236-4.40532 1.52135-9.06198l1.50723-8.46667 1.19724-.07821 1.19724-.07821 4.46828 4.66463c3.08327 3.21878 4.52683 4.5552 4.65725 4.31155.10393-.1942.52109-2.28786.92704-4.65257l.73809-4.29948h2.63001c1.99263 0 2.60045.08015 2.50809.33073-.067.1819-.81555 4.28956-1.66333 9.12812l-1.54141 8.7974h-2.35447l-4.4984-4.6397c-2.47412-2.55182-4.54911-4.58896-4.6111-4.52697-.1034.10339-1.66958 8.51421-1.66997 8.96823-.00011.10914-1.13128.19844-2.51373.19844-2.43443 0-2.51309-.01873-2.49941-.59531zm19.98194-2.77813c.3307-1.85539 1.0532-5.96305 1.60557-9.12812l1.00428-5.7547h19.13543l.27115 1.12449c.14914.61846.77893 3.25548 1.39954 5.86003 1.0586 4.44284 1.15419 4.70315 1.54617 4.21136.22982-.2883 1.90611-2.92401 3.72512-5.85712l3.30729-5.33294 1.58028.06324 1.58028.06324 1.59109 5.75469c.87511 3.16508 1.65227 5.7526 1.72702 5.75005.0747-.0026 1.68373-2.62172 3.5755-5.82039l3.43958-5.81576 2.57969-.00053c1.41883-.00024 2.57969.08038 2.57969.17916 0 .09878-2.35149 4.20148-5.22552 9.11712l-5.22552 8.93753-2.5685.01101-2.56847.01101-.52607-1.78594c-.28935-.98226-.9048-3.09562-1.36766-4.69635-.46286-1.60073-.91853-2.99649-1.01253-3.10168-.094-.1052-1.58139 2.0123-3.3052 4.70555l-3.13426 4.89682-2.54516-.07535-2.54516-.07535-1.72288-7.32138c-1.60515-6.82105-2.11974-8.55498-2.11974-7.14243 0 .56718-.0517.57327-4.86394.57327-4.82042 0-4.86534.0053-5.02346.5953-.0878.32743-.16116.86321-.16314 1.19063-.004.58919.0345.59532 3.70054.59532 2.03729 0 3.70417.03766 3.70417.0837 0 .22394-.57563 3.28163-.69403 3.68661-.12052.41222-.53814.46302-3.80611.46302-2.01888 0-3.72539.0893-3.7922.19844-.0668.10914-.20661.88304-.31067 1.71979l-.1892 1.52135h9.9079l-.14618.59532c-.0804.32742-.2277 1.22039-.32734 1.98437l-.18119 1.38906h-15.19745z" fill="white" />
</svg>
